<mxfile host="app.diagrams.net" modified="2023-05-14T00:29:07.782Z" agent="Mozilla/5.0 (Windows NT 10.0; Win64; x64) AppleWebKit/537.36 (KHTML, like Gecko) Chrome/113.0.0.0 Safari/537.36" version="21.2.9" etag="M0sjNdP-FjTVF5DoBAe6" type="github">
  <diagram name="페이지-1" id="qptxiv8R7tlyQEAf27Y8">
    <mxGraphModel>
      <root>
        <mxCell id="0" />
        <mxCell id="1" parent="0" />
      </root>
    </mxGraphModel>
  </diagram>
</mxfile>
